<svg width="20" height="20" viewBox="0 0 20 20" fill="none" xmlns="http://www.w3.org/2000/svg">
<path d="M9.99995 4.86255L9.80433 4.92192L1.99183 7.53942L0.215576 8.12505L1.24995 8.4563V13.925C0.876826 14.1419 0.624951 14.5375 0.624951 15C0.624951 15.3316 0.756647 15.6495 0.991068 15.8839C1.22549 16.1184 1.54343 16.25 1.87495 16.25C2.20647 16.25 2.52441 16.1184 2.75883 15.8839C2.99326 15.6495 3.12495 15.3316 3.12495 15C3.12495 14.5375 2.87308 14.1419 2.49995 13.925V8.88755L3.74995 9.29692V12.5C3.74995 13.0125 4.06245 13.4375 4.4337 13.7313C4.80495 14.0232 5.2662 14.2294 5.81995 14.4144C6.9287 14.7832 8.38995 15 9.99995 15C11.61 15 13.0712 14.7838 14.18 14.4138C14.7337 14.2294 15.195 14.0232 15.5662 13.7307C15.9375 13.4375 16.25 13.0125 16.25 12.5V9.29692L18.0081 8.71067L19.7843 8.12505L18.0075 7.5388L10.195 4.92192L9.99995 4.86255ZM9.99995 6.17192L15.8593 8.12505L9.99995 10.0782L4.14058 8.12505L9.99995 6.17192ZM4.99995 9.72692L9.80495 11.3282L9.99995 11.3869L10.1956 11.3275L15 9.7263V12.5C15 12.5063 15.0025 12.5788 14.8043 12.7344C14.6068 12.8907 14.2525 13.0875 13.7887 13.2425C12.8625 13.5507 11.4968 13.75 9.99995 13.75C8.50308 13.75 7.13745 13.5513 6.21058 13.2419C5.74808 13.0875 5.39308 12.89 5.19558 12.7344C4.99683 12.5782 4.99995 12.5063 4.99995 12.5V9.72692Z" fill="white"/>
</svg>
