<svg width="20" height="20" viewBox="0 0 20 20" fill="none" xmlns="http://www.w3.org/2000/svg">
<path d="M10.0002 4.86255L9.80457 4.92192L1.99207 7.53942L0.21582 8.12505L1.2502 8.4563V13.925C0.87707 14.1419 0.625195 14.5375 0.625195 15C0.625195 15.3316 0.756891 15.6495 0.991312 15.8839C1.22573 16.1184 1.54367 16.25 1.8752 16.25C2.20672 16.25 2.52466 16.1184 2.75908 15.8839C2.9935 15.6495 3.1252 15.3316 3.1252 15C3.1252 14.5375 2.87332 14.1419 2.5002 13.925V8.88755L3.7502 9.29692V12.5C3.7502 13.0125 4.0627 13.4375 4.43395 13.7313C4.8052 14.0232 5.26645 14.2294 5.8202 14.4144C6.92895 14.7832 8.3902 15 10.0002 15C11.6102 15 13.0714 14.7838 14.1802 14.4138C14.7339 14.2294 15.1952 14.0232 15.5664 13.7307C15.9377 13.4375 16.2502 13.0125 16.2502 12.5V9.29692L18.0083 8.71067L19.7846 8.12505L18.0077 7.5388L10.1952 4.92192L10.0002 4.86255ZM10.0002 6.17192L15.8596 8.12505L10.0002 10.0782L4.14082 8.12505L10.0002 6.17192ZM5.0002 9.72692L9.80519 11.3282L10.0002 11.3869L10.1958 11.3275L15.0002 9.7263V12.5C15.0002 12.5063 15.0027 12.5788 14.8046 12.7344C14.6071 12.8907 14.2527 13.0875 13.7889 13.2425C12.8627 13.5507 11.4971 13.75 10.0002 13.75C8.50332 13.75 7.1377 13.5513 6.21082 13.2419C5.74832 13.0875 5.39332 12.89 5.19582 12.7344C4.99707 12.5782 5.0002 12.5063 5.0002 12.5V9.72692Z" fill="#9E9E9E"/>
</svg>
