<svg width="31" height="27" viewBox="0 0 31 27" fill="none" xmlns="http://www.w3.org/2000/svg">
<g clip-path="url(#clip0_2002_542)">
<path d="M5 12.0824C6.65469 12.0824 8 10.625 8 8.8324C8 7.03982 6.65469 5.5824 5 5.5824C3.34531 5.5824 2 7.03982 2 8.8324C2 10.625 3.34531 12.0824 5 12.0824ZM26 12.0824C27.6547 12.0824 29 10.625 29 8.8324C29 7.03982 27.6547 5.5824 26 5.5824C24.3453 5.5824 23 7.03982 23 8.8324C23 10.625 24.3453 12.0824 26 12.0824ZM27.5 13.7074H24.5C23.675 13.7074 22.9297 14.0679 22.3859 14.6519C24.275 15.7742 25.6156 17.8004 25.9062 20.2074H29C29.8297 20.2074 30.5 19.4812 30.5 18.5824V16.9574C30.5 15.1648 29.1547 13.7074 27.5 13.7074ZM15.5 13.7074C18.4016 13.7074 20.75 11.1633 20.75 8.0199C20.75 4.87654 18.4016 2.3324 15.5 2.3324C12.5984 2.3324 10.25 4.87654 10.25 8.0199C10.25 11.1633 12.5984 13.7074 15.5 13.7074ZM19.1 15.3324H18.7109C17.7359 15.8402 16.6531 16.1449 15.5 16.1449C14.3469 16.1449 13.2688 15.8402 12.2891 15.3324H11.9C8.91875 15.3324 6.5 17.9527 6.5 21.1824V22.6449C6.5 23.9906 7.50781 25.0824 8.75 25.0824H22.25C23.4922 25.0824 24.5 23.9906 24.5 22.6449V21.1824C24.5 17.9527 22.0812 15.3324 19.1 15.3324ZM8.61406 14.6519C8.07031 14.0679 7.325 13.7074 6.5 13.7074H3.5C1.84531 13.7074 0.5 15.1648 0.5 16.9574V18.5824C0.5 19.4812 1.17031 20.2074 2 20.2074H5.08906C5.38438 17.8004 6.725 15.7742 8.61406 14.6519Z" fill="#121F3E"/>
</g>
<defs>
<clipPath id="clip0_2002_542">
<rect width="30" height="26" fill="white" transform="translate(0.5 0.707397)"/>
</clipPath>
</defs>
</svg>
