<svg width="30" height="31" viewBox="0 0 30 31" fill="none" xmlns="http://www.w3.org/2000/svg">
<g clip-path="url(#clip0_2002_407)">
<path d="M26.483 20.5338C25.6767 22.7192 24.4572 24.6193 22.858 26.181C21.0377 27.9585 18.6541 29.3709 15.7734 30.3785C15.6789 30.4114 15.5802 30.4384 15.4811 30.4584C15.3502 30.4842 15.217 30.4982 15.0849 30.5H15.0591C14.9183 30.5 14.7768 30.4858 14.6365 30.4584C14.5374 30.4384 14.4402 30.4114 14.3461 30.3792C11.4619 29.3732 9.07539 27.9615 7.25326 26.184C5.65338 24.6223 4.43412 22.7233 3.62891 20.5379C2.16476 16.5645 2.24807 12.1874 2.31513 8.66993L2.31628 8.61591C2.32978 8.32546 2.33848 8.02036 2.34328 7.68345C2.36777 6.02932 3.68293 4.66083 5.33729 4.56859C8.78654 4.3761 11.4548 3.25115 13.7347 1.02893L13.7547 1.01062C14.1332 0.663406 14.6102 0.493117 15.0849 0.500213C15.5427 0.506164 15.9986 0.676223 16.3637 1.01062L16.3831 1.02893C18.6635 3.25115 21.3318 4.3761 24.781 4.56859C26.4354 4.66083 27.7506 6.02932 27.7751 7.68345C27.7799 8.02265 27.7886 8.32729 27.8021 8.61591L27.8027 8.6388C27.8696 12.1629 27.9524 16.5487 26.483 20.5338Z" fill="#00DD80"/>
<path d="M26.4829 20.5338C25.6766 22.7192 24.4571 24.6194 22.8579 26.181C21.0376 27.9585 18.654 29.371 15.7733 30.3785C15.6788 30.4115 15.5801 30.4385 15.481 30.4584C15.3501 30.4842 15.2169 30.4982 15.0848 30.5V0.500244C15.5426 0.506195 15.9985 0.676254 16.3636 1.01065L16.3831 1.02896C18.6634 3.25118 21.3317 4.37613 24.781 4.56862C26.4353 4.66086 27.7505 6.02935 27.775 7.68348C27.7798 8.02268 27.7885 8.32732 27.802 8.61594L27.8027 8.63883C27.8695 12.1629 27.9524 16.5488 26.4829 20.5338Z" fill="#00AA63"/>
<path d="M22.5351 15.5C22.5351 19.6137 19.195 22.9622 15.0848 22.9769H15.0584C10.936 22.9769 7.58154 19.6226 7.58154 15.5C7.58154 11.3776 10.936 8.02332 15.0584 8.02332H15.0848C19.195 8.03796 22.5351 11.3865 22.5351 15.5Z" fill="white"/>
<path d="M22.5352 15.5C22.5352 19.6137 19.1951 22.9622 15.0848 22.9769V8.02332C19.1951 8.03796 22.5352 11.3865 22.5352 15.5Z" fill="#E1EBF0"/>
<path d="M18.4521 14.4233L15.0848 17.7911L14.3571 18.5187C14.1852 18.6906 13.9598 18.7764 13.7346 18.7764C13.5091 18.7764 13.2839 18.6906 13.1118 18.5187L11.5474 16.9536C11.2036 16.6098 11.2036 16.053 11.5474 15.7089C11.8907 15.3652 12.4483 15.3652 12.792 15.7089L13.7346 16.6515L17.2074 13.1787C17.5512 12.8347 18.1087 12.8347 18.4521 13.1787C18.7958 13.5224 18.7958 14.08 18.4521 14.4233Z" fill="#B4D2D7"/>
<path d="M18.4521 14.4233L15.0848 17.7911V15.3011L17.2075 13.1787C17.5513 12.8347 18.1088 12.8347 18.4521 13.1787C18.7959 13.5224 18.7959 14.08 18.4521 14.4233Z" fill="#6FA5AA"/>
</g>
<defs>
<clipPath id="clip0_2002_407">
<rect width="30" height="30" fill="white" transform="translate(0 0.5)"/>
</clipPath>
</defs>
</svg>
