<svg width="30" height="31" viewBox="0 0 30 31" fill="none" xmlns="http://www.w3.org/2000/svg">
<g clip-path="url(#clip0_2002_421)">
<path d="M6.19998 25.1774C3.78139 25.1774 1.81323 27.2039 1.81323 29.6227V30.5H8.83212L10.4982 28.6868C10.0905 26.6868 8.31851 25.1774 6.19998 25.1774Z" fill="#FF5E70"/>
<path d="M6.2 25.1773C4.26457 25.1773 2.69055 23.6033 2.69055 21.6679C2.69055 19.7322 4.26457 18.1584 6.2 18.1584C8.13565 18.1584 9.70944 19.7322 9.70944 21.6679C9.70944 23.6033 8.13565 25.1773 6.2 25.1773Z" fill="#FF5E70"/>
<path d="M23.7472 25.1774C21.6289 25.1774 19.8569 26.6868 19.4492 28.6868L21.1152 30.5H28.1341V29.6227C28.1341 27.2039 26.166 25.1774 23.7472 25.1774Z" fill="#FF3651"/>
<path d="M23.7472 25.1773C21.8118 25.1773 20.2378 23.6033 20.2378 21.6679C20.2378 19.7322 21.8118 18.1584 23.7472 18.1584C25.6829 18.1584 27.2567 19.7322 27.2567 21.6679C27.2567 23.6033 25.6829 25.1773 23.7472 25.1773Z" fill="#FF3651"/>
<path d="M20.308 4.43654L16.6233 3.89249L14.9737 0.5L13.3242 3.89249L9.6394 4.43654L12.3066 7.03343L11.6749 10.6834L14.9737 8.96382L18.2726 10.6834L17.6409 7.03343L20.308 4.43654Z" fill="#FDBF00"/>
<path d="M27.7425 16.6573L24.4489 14.9267L21.1571 16.6573L21.7861 12.991L19.123 10.3951L22.803 9.8604L24.4491 6.5249L26.095 9.8604L29.9473 10.3951L27.1119 12.991L27.7425 16.6573Z" fill="#FF9100"/>
<path d="M8.79021 16.6573L5.49843 14.9267L2.20482 16.6573L2.83539 12.991L0 10.3951L3.85231 9.8604L5.4982 6.5249L7.14432 9.8604L10.8243 10.3951L8.16124 12.991L8.79021 16.6573Z" fill="#FDBF00"/>
<path d="M14.9737 12.8942C12.5521 12.8942 10.5869 14.8596 10.5869 17.2811C10.5869 19.7025 12.5521 21.6679 14.9737 21.6679C17.3952 21.6679 19.3604 19.7025 19.3604 17.2811C19.3604 14.8596 17.3952 12.8942 14.9737 12.8942Z" fill="#7D89FF"/>
<path d="M14.9736 21.668C11.5871 21.668 8.83203 24.4228 8.83203 27.8096V30.5001H21.1152V27.8096C21.1152 24.4228 18.3602 21.668 14.9736 21.668Z" fill="#7D89FF"/>
<path d="M14.9736 21.6679V12.8942C17.3952 12.8942 19.3604 14.8596 19.3604 17.2811C19.3604 19.7025 17.3952 21.6679 14.9736 21.6679Z" fill="#6B78F7"/>
<path d="M18.2725 10.6834L14.9736 8.96359V0.5L16.6232 3.89249L20.308 4.43654L17.6408 7.03343L18.2725 10.6834Z" fill="#FF9100"/>
<path d="M21.1152 27.8096V30.5001H14.9736V21.668C18.3602 21.668 21.1152 24.4228 21.1152 27.8096Z" fill="#6B78F7"/>
</g>
<defs>
<clipPath id="clip0_2002_421">
<rect width="30" height="30" fill="white" transform="translate(0 0.5)"/>
</clipPath>
</defs>
</svg>
