<svg width="31" height="32" viewBox="0 0 31 32" fill="none" xmlns="http://www.w3.org/2000/svg">
<g clip-path="url(#clip0_2002_446)">
<path d="M21.9552 21.7509L22.6844 21.9219L25.0518 28.7236C25.1272 28.9402 24.9517 29.1617 24.7235 29.1378L21.4051 28.7903C21.3124 28.7806 21.2202 28.8127 21.1536 28.8779L18.7682 31.2106C18.6042 31.371 18.329 31.3064 18.2536 31.0897L15.8707 24.2437L16.2155 23.7384L21.9552 21.7509Z" fill="#FF4755"/>
<path d="M15.8709 24.2436L15.3894 22.8603L22.2045 20.5427L22.6846 21.9219C20.7494 23.3028 18.4061 24.1481 15.8709 24.2436Z" fill="#FC2B3A"/>
<path d="M8.83371 21.7509L8.1045 21.9219L5.73711 28.7236C5.66167 28.9402 5.83721 29.1617 6.06538 29.1378L9.38378 28.7903C9.47648 28.7806 9.56864 28.8127 9.63523 28.8779L12.0207 31.2106C12.1847 31.371 12.4599 31.3064 12.5352 31.0897L14.9181 24.2437L14.5733 23.7384L8.83371 21.7509Z" fill="#FF4755"/>
<path d="M14.9185 24.2436L15.4 22.8603L8.58491 20.5427L8.10486 21.9219C10.04 23.3028 12.3833 24.1481 14.9185 24.2436Z" fill="#FC2B3A"/>
<path d="M15.3983 22.0725C4.23206 22.0725 4.22279 11.3033 4.23206 11.1167C4.52556 5.20386 9.41259 0.5 15.3983 0.5C21.3839 0.5 26.271 5.20386 26.5645 11.1167C26.5737 11.3033 26.5784 22.0725 15.3983 22.0725Z" fill="#FFCB5B"/>
<path d="M15.3999 21.7332C9.41422 21.7332 4.52737 17.0293 4.2338 11.1166C4.22454 11.3032 4.21973 11.4911 4.21973 11.6801C4.21973 17.8547 9.22527 22.8602 15.3999 22.8602C21.5745 22.8602 26.58 17.8547 26.58 11.6801C26.58 11.4911 26.5752 11.3032 26.566 11.1166C26.2724 17.0293 21.3856 21.7332 15.3999 21.7332Z" fill="#F7B737"/>
<path d="M15.3998 19.7517C6.60991 19.7517 6.59812 11.303 6.60991 11.1166C6.90046 6.5149 10.7248 2.87256 15.3998 2.87256C20.0747 2.87256 23.8991 6.5149 24.1896 11.1166C24.2014 11.303 24.2074 19.7517 15.3998 19.7517Z" fill="#FF9838"/>
<path d="M15.3996 19.3606C10.7247 19.3606 6.90112 15.7182 6.61051 11.1166C6.59872 11.3029 6.59204 11.4907 6.59204 11.6801C6.59204 16.5444 10.5353 20.4877 15.3996 20.4877C20.2639 20.4877 24.2072 16.5444 24.2072 11.6801C24.2072 11.4907 24.2006 11.3029 24.1888 11.1166C23.8982 15.7182 20.0746 19.3606 15.3996 19.3606Z" fill="#FF8709"/>
<path d="M16.206 7.38976L17.0274 9.05417C17.1584 9.31952 17.4116 9.50347 17.7044 9.546L19.5412 9.81292C20.2787 9.92006 20.5732 10.8264 20.0395 11.3466L18.7104 12.6421C18.4985 12.8487 18.4018 13.1463 18.4518 13.438L18.7656 15.2673C18.7954 15.4408 18.718 15.749 18.718 15.749H17.461L15.3997 14.5901L13.3385 15.749L12.0918 15.774C12.0918 15.774 12.0023 15.4509 12.0339 15.2673L12.3476 13.4379C12.3977 13.1462 12.301 12.8486 12.089 12.6421L10.7599 11.3465C10.2263 10.8264 10.5208 9.92006 11.2583 9.81286L13.095 9.54594C13.3879 9.50341 13.6411 9.31946 13.772 9.05411L14.5935 7.3897C14.9232 6.72149 15.8762 6.72149 16.206 7.38976Z" fill="#FFF5F5"/>
<path d="M15.254 14.0812L12.0819 15.749C12.2664 16.2158 12.8346 16.4802 13.3385 16.2154L14.9813 15.3516C15.2432 15.2139 15.5562 15.2139 15.8181 15.3516L17.461 16.2154C17.9648 16.4802 18.5331 16.2158 18.7176 15.749L15.5455 14.0812C15.4541 14.0333 15.3452 14.0333 15.254 14.0812Z" fill="#EFE2DD"/>
</g>
<defs>
<clipPath id="clip0_2002_446">
<rect width="30.8" height="30.8" fill="white" transform="translate(0 0.5)"/>
</clipPath>
</defs>
</svg>

