<svg width="35" height="35" viewBox="0 0 35 35" fill="none" xmlns="http://www.w3.org/2000/svg">
<path fill-rule="evenodd" clip-rule="evenodd" d="M12.0312 9.84375C12.0312 8.39335 12.6074 7.00235 13.633 5.97676C14.6586 4.95117 16.0496 4.375 17.5 4.375C18.9504 4.375 20.3414 4.95117 21.367 5.97676C22.3926 7.00235 22.9688 8.39335 22.9688 9.84375C22.9688 11.2942 22.3926 12.6852 21.367 13.7107C20.3414 14.7363 18.9504 15.3125 17.5 15.3125C16.0496 15.3125 14.6586 14.7363 13.633 13.7107C12.6074 12.6852 12.0312 11.2942 12.0312 9.84375ZM22.9688 14.2187C22.9688 13.0584 23.4297 11.9456 24.2502 11.1252C25.0706 10.3047 26.1834 9.84375 27.3438 9.84375C28.5041 9.84375 29.6169 10.3047 30.4373 11.1252C31.2578 11.9456 31.7188 13.0584 31.7188 14.2187C31.7188 15.3791 31.2578 16.4919 30.4373 17.3123C29.6169 18.1328 28.5041 18.5938 27.3438 18.5938C26.1834 18.5938 25.0706 18.1328 24.2502 17.3123C23.4297 16.4919 22.9688 15.3791 22.9688 14.2187ZM3.28125 14.2187C3.28125 13.0584 3.74219 11.9456 4.56266 11.1252C5.38313 10.3047 6.49593 9.84375 7.65625 9.84375C8.81657 9.84375 9.92937 10.3047 10.7498 11.1252C11.5703 11.9456 12.0312 13.0584 12.0312 14.2187C12.0312 15.3791 11.5703 16.4919 10.7498 17.3123C9.92937 18.1328 8.81657 18.5938 7.65625 18.5938C6.49593 18.5938 5.38313 18.1328 4.56266 17.3123C3.74219 16.4919 3.28125 15.3791 3.28125 14.2187ZM9.20208 22.0456C10.0916 20.6515 11.3182 19.5041 12.7686 18.7096C14.219 17.9151 15.8463 17.4991 17.5 17.5C18.8852 17.4987 20.255 17.79 21.5197 18.3548C22.7845 18.9196 23.9158 19.7452 24.8394 20.7774C25.763 21.8097 26.4582 23.0254 26.8795 24.3449C27.3008 25.6644 27.4386 27.0581 27.284 28.4346C27.2651 28.6056 27.2061 28.7697 27.1118 28.9137C27.0175 29.0576 26.8907 29.1772 26.7415 29.2629C23.9291 30.8766 20.7424 31.7235 17.5 31.7188C14.1385 31.7188 10.9813 30.8263 8.25854 29.2629C8.10934 29.1772 7.98245 29.0576 7.88819 28.9137C7.79393 28.7697 7.73495 28.6056 7.71604 28.4346C7.47112 26.1984 7.99526 23.9455 9.20208 22.0471V22.0456Z" fill="#A51535"/>
<path d="M7.41125 20.7871C5.97297 23.0073 5.30287 25.638 5.50375 28.2757C4.62803 28.1429 3.76673 27.928 2.93125 27.634L2.76354 27.5757C2.61391 27.5225 2.48288 27.4272 2.38634 27.3011C2.28979 27.1751 2.23187 27.0237 2.21958 26.8654L2.205 26.689C2.14609 25.9568 2.23526 25.2203 2.46721 24.5234C2.69915 23.8265 3.06911 23.1835 3.55501 22.6326C4.0409 22.0818 4.63278 21.6345 5.29532 21.3174C5.95786 21.0004 6.67748 20.82 7.41125 20.7871ZM29.4962 28.2757C29.6971 25.638 29.027 23.0073 27.5887 20.7871C28.3225 20.82 29.0421 21.0004 29.7047 21.3174C30.3672 21.6345 30.9591 22.0818 31.445 22.6326C31.9309 23.1835 32.3008 23.8265 32.5328 24.5234C32.7647 25.2203 32.8539 25.9568 32.795 26.689L32.7804 26.8654C32.7679 27.0235 32.7098 27.1745 32.6133 27.3003C32.5167 27.4261 32.3859 27.5212 32.2365 27.5742L32.0687 27.6325C31.2419 27.9242 30.3829 28.1415 29.4962 28.2757Z" fill="#A51535"/>
</svg>
