<svg width="56" height="56" viewBox="0 0 56 56" fill="none" xmlns="http://www.w3.org/2000/svg">
<g clip-path="url(#clip0_2002_578)">
<path fill-rule="evenodd" clip-rule="evenodd" d="M18.8601 12.9993C19.1418 12.8286 19.4797 12.7769 19.7995 12.8554C20.1194 12.9339 20.3949 13.1363 20.5655 13.418L22.4956 16.6042C22.6663 16.8859 22.718 17.2238 22.6395 17.5437C22.561 17.8635 22.3586 18.139 22.0769 18.3097C21.7952 18.4803 21.4573 18.5321 21.1375 18.4535C20.8177 18.375 20.5421 18.1726 20.3715 17.891L18.4414 14.7047C18.2708 14.423 18.219 14.0851 18.2975 13.7653C18.3761 13.4454 18.5784 13.1699 18.8601 12.9993ZM12.1092 22.1913C12.1879 21.8718 12.3901 21.5966 12.6716 21.4261C12.953 21.2556 13.2906 21.2038 13.6103 21.282L17.2295 22.1694C17.5443 22.2527 17.8138 22.4562 17.9799 22.7362C18.146 23.0163 18.1955 23.3503 18.1178 23.6665C18.04 23.9827 17.8411 24.2556 17.564 24.4266C17.2869 24.5976 16.9538 24.6529 16.6363 24.5806L13.0193 23.6938C12.8609 23.655 12.7117 23.5853 12.5802 23.4887C12.4487 23.3922 12.3375 23.2707 12.253 23.1311C12.1684 22.9916 12.1122 22.8368 12.0876 22.6755C12.0629 22.5143 12.0702 22.3497 12.1092 22.1913ZM30.1334 11.273C30.453 11.3516 30.7282 11.5539 30.8987 11.8353C31.0692 12.1168 31.121 12.4544 31.0427 12.774L30.1554 16.3933C30.0721 16.708 29.8685 16.9775 29.5885 17.1437C29.3085 17.3098 28.9744 17.3593 28.6582 17.2815C28.3421 17.2037 28.0691 17.0049 27.8981 16.7278C27.7272 16.4507 27.6718 16.1175 27.7441 15.8001L28.6309 12.1831C28.6698 12.0247 28.7395 11.8754 28.836 11.7439C28.9326 11.6124 29.0541 11.5012 29.1936 11.4167C29.3331 11.3322 29.488 11.276 29.6492 11.2513C29.8105 11.2267 29.975 11.234 30.1334 11.273ZM24.338 23.4867C24.5183 23.2986 24.7533 23.1719 25.0095 23.1247C25.2658 23.0775 25.5305 23.1121 25.766 23.2237L39.9608 29.9503C40.1829 30.0555 40.3688 30.2243 40.4949 30.4352C40.6211 30.6461 40.6818 30.8896 40.6694 31.1351C40.6571 31.3805 40.5721 31.6168 40.4254 31.8139C40.2787 32.0111 40.0768 32.1602 39.8453 32.2426L36.5068 33.4325L41.3321 38.0589C41.57 38.287 41.7074 38.6003 41.7142 38.9298C41.721 39.2593 41.5967 39.578 41.3685 39.8158C41.1404 40.0536 40.8271 40.191 40.4976 40.1979C40.1681 40.2047 39.8494 40.0803 39.6116 39.8522L34.7886 35.2263L33.7395 38.6106C33.667 38.8455 33.5264 39.0536 33.3356 39.2085C33.1447 39.3635 32.9121 39.4583 32.6674 39.4809C32.4226 39.5036 32.1766 39.453 31.9605 39.3358C31.7445 39.2185 31.5681 39.0397 31.4537 38.8221L24.1359 24.9235C24.0143 24.693 23.9683 24.43 24.0044 24.1719C24.0405 23.9138 24.1569 23.6736 24.3371 23.4853L24.338 23.4867ZM13.8355 33.4647C13.6649 33.183 13.6131 32.845 13.6917 32.5252C13.7702 32.2054 13.9725 31.9298 14.2542 31.7592L17.4405 29.8291C17.7222 29.6585 18.0601 29.6067 18.3799 29.6853C18.6997 29.7638 18.9753 29.9661 19.1459 30.2478C19.3166 30.5295 19.3683 30.8674 19.2898 31.1873C19.2112 31.5071 19.0089 31.7826 18.7272 31.9533L15.541 33.8834C15.2593 34.054 14.9213 34.1057 14.6015 34.0272C14.2817 33.9487 14.0061 33.7463 13.8355 33.4647ZM34.0151 21.2407C33.8444 20.959 33.7927 20.6211 33.8712 20.3012C33.9497 19.9814 34.1521 19.7059 34.4338 19.5352L37.62 17.6051C37.9017 17.4345 38.2396 17.3828 38.5595 17.4613C38.8793 17.5398 39.1548 17.7422 39.3255 18.0239C39.4961 18.3055 39.5479 18.6435 39.4693 18.9633C39.3908 19.2831 39.1884 19.5587 38.9068 19.7293L35.7205 21.6594C35.4388 21.83 35.1009 21.8818 34.7811 21.8033C34.4612 21.7247 34.1857 21.5224 34.0151 21.2407ZM24.5081 34.1851C24.6666 34.2239 24.8158 34.2936 24.9473 34.3902C25.0788 34.4867 25.19 34.6082 25.2745 34.7478C25.359 34.8873 25.4152 35.0421 25.4399 35.2034C25.4646 35.3646 25.4572 35.5292 25.4183 35.6876L24.53 39.3054C24.4936 39.4662 24.4255 39.6181 24.3297 39.7523C24.2339 39.8865 24.1123 40.0003 23.9721 40.087C23.8318 40.1738 23.6757 40.2317 23.5129 40.2574C23.35 40.2832 23.1837 40.2762 23.0235 40.237C22.8634 40.1977 22.7126 40.127 22.5801 40.0289C22.4476 39.9308 22.336 39.8072 22.2517 39.6655C22.1674 39.5238 22.1122 39.3667 22.0893 39.2034C22.0664 39.0401 22.0762 38.8739 22.1183 38.7145L23.0056 35.0952C23.0843 34.7757 23.2866 34.5005 23.568 34.33C23.8495 34.1595 24.1871 34.1077 24.5067 34.1859L24.5081 34.1851Z" fill="#A51535"/>
</g>
<defs>
<clipPath id="clip0_2002_578">
<rect width="39.7359" height="39.7359" fill="white" transform="translate(0.580078 21.1689) rotate(-31.2058)"/>
</clipPath>
</defs>
</svg>
