<svg width="35" height="35" viewBox="0 0 35 35" fill="none" xmlns="http://www.w3.org/2000/svg">
<path d="M17.0625 4.09064C17.2005 4.03041 17.3494 3.99933 17.5 3.99933C17.6506 3.99933 17.7995 4.03041 17.9375 4.09064C23.3305 6.44789 28.4747 9.33756 33.2937 12.7167C33.4636 12.8358 33.596 13.0007 33.6757 13.1922C33.7553 13.3838 33.7788 13.594 33.7435 13.7984C33.7082 14.0028 33.6155 14.1929 33.4762 14.3466C33.3369 14.5003 33.1568 14.6113 32.9569 14.6665C27.9539 16.0482 23.1129 17.9608 18.5165 20.3715L18.5121 20.3744C18.3458 20.4619 18.181 20.5479 18.0162 20.6369C17.8576 20.7217 17.6806 20.766 17.5007 20.766C17.3209 20.766 17.1438 20.7217 16.9852 20.6369C15.0138 19.5848 12.9958 18.6223 10.9375 17.7523V17.4256C10.9375 17.2346 11.0352 17.064 11.1883 16.9721C13.3895 15.6382 15.654 14.4117 17.974 13.2971C18.2354 13.1714 18.4362 12.947 18.5322 12.6732C18.6282 12.3995 18.6115 12.0988 18.4858 11.8373C18.3601 11.5758 18.1357 11.375 17.8619 11.279C17.5882 11.183 17.2875 11.1997 17.026 11.3254C14.6428 12.4706 12.3165 13.7307 10.0552 15.1011C9.73349 15.2962 9.45596 15.5562 9.24028 15.8646C9.02461 16.1729 8.87551 16.5228 8.80249 16.8919C6.58759 16.0396 4.33224 15.2965 2.04458 14.665C1.84463 14.6098 1.66451 14.4989 1.52522 14.3452C1.38594 14.1915 1.29323 14.0013 1.25791 13.7969C1.2226 13.5925 1.24613 13.3823 1.32577 13.1908C1.40541 12.9993 1.53787 12.8343 1.7077 12.7152C6.52631 9.33672 11.6701 6.44754 17.0625 4.09064Z" fill="#A51535"/>
<path d="M19.0458 22.5648C22.6278 20.651 26.3682 19.0497 30.2254 17.7785C30.4208 19.8406 30.5462 21.9246 30.5972 24.026C30.6029 24.2463 30.5419 24.4632 30.4222 24.6482C30.3025 24.8332 30.1297 24.9778 29.9264 25.0629C25.7924 26.7894 21.8342 28.9099 18.1066 31.395C17.927 31.5147 17.7159 31.5787 17.4999 31.5787C17.284 31.5787 17.0729 31.5147 16.8933 31.395C13.1661 28.91 9.20842 26.7895 5.07494 25.0629C4.87165 24.9781 4.69871 24.8339 4.57875 24.6491C4.45879 24.4644 4.39742 24.2477 4.40265 24.0275C4.45369 21.9246 4.57911 19.8421 4.77453 17.7771C6.11765 18.2204 7.44328 18.7017 8.74994 19.2208V21.0729C8.43485 21.2544 8.16998 21.5117 7.97931 21.8213C7.78864 22.131 7.67817 22.4833 7.6579 22.8464C7.63763 23.2095 7.7082 23.5719 7.86323 23.9008C8.01825 24.2298 8.25285 24.5149 8.54578 24.7304C8.41453 25.2846 8.22203 25.8285 7.96682 26.3492C8.62599 26.6598 9.28078 26.9821 9.92974 27.3117C10.2955 26.5676 10.5655 25.7801 10.7333 24.9681C11.1021 24.8041 11.4183 24.5413 11.647 24.2088C11.8757 23.8762 12.0079 23.4869 12.029 23.0838C12.0502 22.6808 11.9594 22.2797 11.7667 21.9251C11.5741 21.5704 11.2871 21.276 10.9374 21.0744V20.1337C12.6409 20.8779 14.3145 21.6889 15.9541 22.5648C16.4298 22.8188 16.9607 22.9517 17.4999 22.9517C18.0392 22.9517 18.5701 22.8188 19.0458 22.5648Z" fill="#A51535"/>
<path d="M6.50706 28.3821C7.11956 27.7711 7.60518 27.0842 7.96539 26.3477C8.62602 26.6598 9.28081 26.9821 9.92977 27.3131C9.4526 28.2823 8.81897 29.1663 8.05435 29.9294C7.84701 30.1226 7.57278 30.2278 7.28942 30.2228C7.00607 30.2178 6.73571 30.103 6.53532 29.9026C6.33492 29.7022 6.22014 29.4318 6.21514 29.1485C6.21014 28.8651 6.31532 28.5909 6.50852 28.3836L6.50706 28.3821Z" fill="#A51535"/>
</svg>
