<svg width="35" height="35" viewBox="0 0 35 35" fill="none" xmlns="http://www.w3.org/2000/svg">
<path d="M6.5625 5.46875C5.40218 5.46875 4.28938 5.92969 3.46891 6.75016C2.64844 7.57063 2.1875 8.68343 2.1875 9.84375V10.9375H32.8125V9.84375C32.8125 8.68343 32.3516 7.57063 31.5311 6.75016C30.7106 5.92969 29.5978 5.46875 28.4375 5.46875H6.5625Z" fill="#A51535"/>
<path fill-rule="evenodd" clip-rule="evenodd" d="M32.8125 14.2188H2.1875V25.1562C2.1875 26.3166 2.64844 27.4294 3.46891 28.2498C4.28938 29.0703 5.40218 29.5312 6.5625 29.5312H28.4375C29.5978 29.5312 30.7106 29.0703 31.5311 28.2498C32.3516 27.4294 32.8125 26.3166 32.8125 25.1562V14.2188ZM6.5625 19.6875C6.5625 19.3974 6.67773 19.1192 6.88285 18.9141C7.08797 18.709 7.36617 18.5938 7.65625 18.5938H16.4062C16.6963 18.5938 16.9745 18.709 17.1796 18.9141C17.3848 19.1192 17.5 19.3974 17.5 19.6875C17.5 19.9776 17.3848 20.2558 17.1796 20.4609C16.9745 20.666 16.6963 20.7812 16.4062 20.7812H7.65625C7.36617 20.7812 7.08797 20.666 6.88285 20.4609C6.67773 20.2558 6.5625 19.9776 6.5625 19.6875ZM7.65625 22.9688C7.36617 22.9688 7.08797 23.084 6.88285 23.2891C6.67773 23.4942 6.5625 23.7724 6.5625 24.0625C6.5625 24.3526 6.67773 24.6308 6.88285 24.8359C7.08797 25.041 7.36617 25.1562 7.65625 25.1562H12.0312C12.3213 25.1562 12.5995 25.041 12.8046 24.8359C13.0098 24.6308 13.125 24.3526 13.125 24.0625C13.125 23.7724 13.0098 23.4942 12.8046 23.2891C12.5995 23.084 12.3213 22.9688 12.0312 22.9688H7.65625Z" fill="#A51535"/>
</svg>
