<svg width="41" height="40" viewBox="0 0 41 40" fill="none" xmlns="http://www.w3.org/2000/svg">
<path fill-rule="evenodd" clip-rule="evenodd" d="M40.4 0H0V40H40.4V0ZM16.1811 8.22794C17.1348 7.23124 18.4605 6.66667 19.8472 6.66667H29.8732C30.2481 6.66667 30.4358 7.11548 30.1707 7.37796L24.7271 12.7677C23.8194 13.6664 22.6 14.1892 21.317 14.2296L10.1 14.5833L16.1811 8.22794ZM15.6729 27.2323C16.5806 26.3335 17.7999 25.8108 19.083 25.7704L30.3 25.4167L24.2189 31.7721C23.2652 32.7688 21.9395 33.3333 20.5528 33.3333H10.5268C10.1519 33.3333 9.96412 32.8845 10.2292 32.622L15.6729 27.2323ZM17.17 16.25H23.23V23.75H17.17V16.25ZM16.16 15.25L10.1 14.9167V16.3986C10.1 17.1003 10.3979 17.7697 10.9208 18.2433L16.8333 23.75L16.16 15.25ZM23.5667 16.25L29.4791 21.7567C30.0021 22.2303 30.3 22.8997 30.3 23.6014V25.0833L24.24 24.75L23.5667 16.25Z" fill="#A51535"/>
<path d="M16.1811 8.22802C17.1348 7.23132 18.4604 6.66675 19.8471 6.66675H29.8731C30.2481 6.66675 30.4358 7.11556 30.1707 7.37804L24.7271 12.7678C23.8194 13.6665 22.6 14.1893 21.3169 14.2297L10.1 14.5834L16.1811 8.22802Z" fill="white"/>
<path d="M15.6729 27.2324C16.5806 26.3336 17.7999 25.8109 19.083 25.7704L30.3 25.4167L24.2189 31.7721C23.2652 32.7688 21.9395 33.3334 20.5528 33.3334H10.5268C10.1519 33.3334 9.96411 32.8846 10.2292 32.6221L15.6729 27.2324Z" fill="white"/>
<path d="M23.23 16.2501H17.17V23.7501H23.23V16.2501Z" fill="white"/>
<path d="M16.16 15.2501L10.1 14.9167V16.3987C10.1 17.1004 10.3978 17.7698 10.9208 18.2434L16.8333 23.7501L16.16 15.2501Z" fill="white"/>
<path d="M29.4791 21.7567L23.5666 16.2501L24.24 24.7501L30.3 25.0834V23.6015C30.3 22.8998 30.0021 22.2303 29.4791 21.7567Z" fill="white"/>
</svg>
