<svg width="41" height="40" viewBox="0 0 41 40" fill="none" xmlns="http://www.w3.org/2000/svg">
<circle cx="20.5" cy="20" r="19.5" fill="white" stroke="#E2E8F0"/>
<path fill-rule="evenodd" clip-rule="evenodd" d="M14.4999 21.3334C14.8681 21.3334 15.1666 21.6319 15.1666 22V24.6667C15.1666 24.8435 15.2368 25.0131 15.3618 25.1381C15.4869 25.2631 15.6564 25.3334 15.8333 25.3334H25.1666C25.3434 25.3334 25.513 25.2631 25.638 25.1381C25.763 25.0131 25.8333 24.8435 25.8333 24.6667V22C25.8333 21.6319 26.1317 21.3334 26.4999 21.3334C26.8681 21.3334 27.1666 21.6319 27.1666 22V24.6667C27.1666 25.1971 26.9559 25.7058 26.5808 26.0809C26.2057 26.456 25.697 26.6667 25.1666 26.6667H15.8333C15.3028 26.6667 14.7941 26.456 14.419 26.0809C14.044 25.7058 13.8333 25.1971 13.8333 24.6667V22C13.8333 21.6319 14.1317 21.3334 14.4999 21.3334Z" fill="#353535"/>
<path fill-rule="evenodd" clip-rule="evenodd" d="M20.0286 13.5286C20.2889 13.2683 20.7111 13.2683 20.9714 13.5286L24.3047 16.862C24.5651 17.1223 24.5651 17.5444 24.3047 17.8048C24.0444 18.0651 23.6223 18.0651 23.3619 17.8048L20.5 14.9428L17.6381 17.8048C17.3777 18.0651 16.9556 18.0651 16.6953 17.8048C16.4349 17.5444 16.4349 17.1223 16.6953 16.862L20.0286 13.5286Z" fill="#353535"/>
<path fill-rule="evenodd" clip-rule="evenodd" d="M20.4999 13.3334C20.8681 13.3334 21.1666 13.6319 21.1666 14V22C21.1666 22.3682 20.8681 22.6667 20.4999 22.6667C20.1317 22.6667 19.8333 22.3682 19.8333 22V14C19.8333 13.6319 20.1317 13.3334 20.4999 13.3334Z" fill="#353535"/>
</svg>
