<svg width="25" height="24" viewBox="0 0 25 24" fill="none" xmlns="http://www.w3.org/2000/svg">
<path d="M5.144 4.79999H21.044C22.544 4.79999 23.3 5.50799 23.3 6.94799V17.052C23.3 18.48 22.544 19.2 21.044 19.2H5.144C3.644 19.2 2.888 18.48 2.888 17.052V6.94799C2.888 5.50799 3.644 4.79999 5.144 4.79999ZM13.088 15.12L21.176 8.48399C21.464 8.24399 21.692 7.69199 21.332 7.19999C20.984 6.70799 20.348 6.69599 19.928 6.99599L13.088 11.628L6.26 6.99599C5.84 6.69599 5.204 6.70799 4.856 7.19999C4.496 7.69199 4.724 8.24399 5.012 8.48399L13.088 15.12Z" fill="white"/>
</svg>
