<svg width="25" height="25" viewBox="0 0 25 25" fill="none" xmlns="http://www.w3.org/2000/svg">
<g clip-path="url(#clip0_2002_634)">
<path d="M12.5037 8.5313C10.2323 8.5313 8.40011 10.3348 8.40011 12.5707C8.40011 14.8067 10.2323 16.6102 12.5037 16.6102C14.7751 16.6102 16.6073 14.8067 16.6073 12.5707C16.6073 10.3348 14.7751 8.5313 12.5037 8.5313ZM12.5037 15.1969C11.0358 15.1969 9.83583 14.0192 9.83583 12.5707C9.83583 11.1223 11.0323 9.94458 12.5037 9.94458C13.9751 9.94458 15.1715 11.1223 15.1715 12.5707C15.1715 14.0192 13.9715 15.1969 12.5037 15.1969ZM17.7322 8.36606C17.7322 8.88989 17.3037 9.30825 16.7751 9.30825C16.243 9.30825 15.818 8.88637 15.818 8.36606C15.818 7.84575 16.2465 7.42388 16.7751 7.42388C17.3037 7.42388 17.7322 7.84575 17.7322 8.36606ZM20.4501 9.32231C20.3894 8.0602 20.0965 6.94223 19.1572 6.02114C18.2215 5.10005 17.0858 4.81177 15.8037 4.74849C14.4823 4.67466 10.5215 4.67466 9.20011 4.74849C7.92154 4.80825 6.78583 5.09653 5.84654 6.01763C4.90726 6.93872 4.61797 8.05669 4.55369 9.3188C4.47869 10.6196 4.47869 14.5184 4.55369 15.8192C4.6144 17.0813 4.90726 18.1993 5.84654 19.1204C6.78583 20.0414 7.91797 20.3297 9.20011 20.393C10.5215 20.4668 14.4823 20.4668 15.8037 20.393C17.0858 20.3332 18.2215 20.045 19.1572 19.1204C20.093 18.1993 20.3858 17.0813 20.4501 15.8192C20.5251 14.5184 20.5251 10.6231 20.4501 9.32231ZM18.743 17.2149C18.4644 17.9039 17.9251 18.4348 17.2215 18.7125C16.168 19.1239 13.668 19.0289 12.5037 19.0289C11.3394 19.0289 8.83583 19.1204 7.78583 18.7125C7.08583 18.4383 6.54654 17.9075 6.2644 17.2149C5.84654 16.1778 5.94297 13.7168 5.94297 12.5707C5.94297 11.4247 5.85011 8.9602 6.2644 7.92661C6.54297 7.23755 7.08226 6.70669 7.78583 6.42895C8.8394 6.01763 11.3394 6.11255 12.5037 6.11255C13.668 6.11255 16.1715 6.02114 17.2215 6.42895C17.9215 6.70317 18.4608 7.23403 18.743 7.92661C19.1608 8.96372 19.0644 11.4247 19.0644 12.5707C19.0644 13.7168 19.1608 16.1813 18.743 17.2149Z" fill="white"/>
</g>
<defs>
<clipPath id="clip0_2002_634">
<rect width="16" height="18" fill="white" transform="translate(4.50012 3.57422)"/>
</clipPath>
</defs>
</svg>
