<svg width="25" height="25" viewBox="0 0 25 25" fill="none" xmlns="http://www.w3.org/2000/svg">
<g clip-path="url(#clip0_2002_638)">
<path d="M8.13281 19.5741V9.45363H4.70251V19.5741H8.13281ZM6.4181 8.07102C7.61431 8.07102 8.35889 7.29388 8.35889 6.32272C8.3366 5.32966 7.61436 4.5741 6.4408 4.5741C5.26743 4.5741 4.50012 5.32968 4.50012 6.32272C4.50012 7.29393 5.24452 8.07102 6.39571 8.07102H6.418H6.4181ZM10.0315 19.5741H13.4618V13.9223C13.4618 13.6199 13.4841 13.3177 13.5746 13.1015C13.8226 12.4971 14.3871 11.8712 15.3346 11.8712C16.5759 11.8712 17.0725 12.7993 17.0725 14.1598V19.574H20.5026V13.771C20.5026 10.6624 18.8103 9.21603 16.5533 9.21603C14.7028 9.21603 13.8903 10.2304 13.439 10.9212H13.4619V9.45342H10.0315C10.0766 10.4031 10.0315 19.5739 10.0315 19.5739L10.0315 19.5741Z" fill="white"/>
</g>
<defs>
<clipPath id="clip0_2002_638">
<rect width="16" height="15" fill="white" transform="translate(4.50012 4.57422)"/>
</clipPath>
</defs>
</svg>
