<svg width="25" height="24" viewBox="0 0 25 24" fill="none" xmlns="http://www.w3.org/2000/svg">
<g clip-path="url(#clip0_2002_666)">
<path d="M11.6359 21.525C9.73281 19.1426 5.5 13.3684 5.5 10.125C5.5 6.18992 8.63396 3 12.5 3C16.3646 3 19.5 6.18992 19.5 10.125C19.5 13.3684 15.2344 19.1426 13.3641 21.525C12.9156 22.0928 12.0844 22.0928 11.6359 21.525ZM12.5 12.5C13.787 12.5 14.8333 11.435 14.8333 10.125C14.8333 8.81504 13.787 7.75 12.5 7.75C11.213 7.75 10.1667 8.81504 10.1667 10.125C10.1667 11.435 11.213 12.5 12.5 12.5Z" fill="white"/>
</g>
<defs>
<clipPath id="clip0_2002_666">
<rect width="14" height="19" fill="white" transform="translate(5.5 3)"/>
</clipPath>
</defs>
</svg>
