<svg width="25" height="24" viewBox="0 0 25 24" fill="none" xmlns="http://www.w3.org/2000/svg">
<path d="M3.74375 5.39531L6.23984 2.90156C6.41592 2.72471 6.6252 2.58439 6.85567 2.48867C7.08614 2.39294 7.33325 2.34369 7.58281 2.34375C8.0914 2.34375 8.56953 2.54297 8.92812 2.90156L11.6141 5.5875C11.7909 5.76358 11.9312 5.97286 12.027 6.20333C12.1227 6.4338 12.1719 6.68091 12.1719 6.93047C12.1719 7.43906 11.9727 7.91719 11.6141 8.27578L9.65 10.2398C10.1097 11.2532 10.7489 12.175 11.5367 12.9609C12.3225 13.7506 13.2443 14.3922 14.2578 14.8547L16.2219 12.8906C16.398 12.7138 16.6072 12.5735 16.8377 12.4777C17.0682 12.382 17.3153 12.3328 17.5648 12.3328C18.0734 12.3328 18.5516 12.532 18.9102 12.8906L21.5984 15.5742C21.7755 15.7506 21.9159 15.9603 22.0117 16.1912C22.1074 16.4221 22.1565 16.6696 22.1562 16.9195C22.1562 17.4281 21.957 17.9062 21.5984 18.2648L19.107 20.7562C18.5352 21.3305 17.7453 21.6562 16.9344 21.6562C16.7633 21.6562 16.5992 21.6422 16.4375 21.6141C13.2781 21.0938 10.1445 19.4133 7.61562 16.8867C5.08906 14.3625 3.41094 11.2312 2.88359 8.0625C2.72422 7.09453 3.04531 6.09844 3.74375 5.39531Z" fill="white"/>
</svg>
