<svg width="25" height="25" viewBox="0 0 25 25" fill="none" xmlns="http://www.w3.org/2000/svg">
<g clip-path="url(#clip0_2002_642)">
<path d="M21.4999 7.27899C20.8258 7.56347 20.1109 7.75019 19.3788 7.83297C20.1414 7.39756 20.7269 6.70808 21.0026 5.88656C20.2777 6.29637 19.4846 6.58511 18.6576 6.7403C17.9839 6.05657 17.0242 5.62927 15.962 5.62927C13.9225 5.62927 12.269 7.20451 12.269 9.14736C12.269 9.42314 12.3017 9.69162 12.3646 9.94917C9.29546 9.80241 6.57436 8.40181 4.75292 6.27327C4.4351 6.79288 4.253 7.39729 4.253 8.04196C4.253 9.26257 4.905 10.3394 5.89585 10.9703C5.3094 10.9528 4.73587 10.8019 4.22311 10.5302C4.2229 10.5449 4.2229 10.5597 4.2229 10.5745C4.2229 12.2791 5.49584 13.701 7.18517 14.0242C6.64136 14.1651 6.07095 14.1858 5.5175 14.0845C5.98739 15.4823 7.35125 16.4994 8.96717 16.5278C7.7033 17.4714 6.11093 18.0339 4.38082 18.0339C4.0827 18.0339 3.78879 18.0172 3.49988 17.9847C5.13415 18.9829 7.07527 19.5654 9.16074 19.5654C15.9534 19.5654 19.6678 14.2044 19.6678 9.55537C19.6678 9.40277 19.6643 9.25105 19.6571 9.1002C20.3801 8.60228 21.0041 7.98557 21.4999 7.27899Z" fill="white"/>
</g>
<defs>
<clipPath id="clip0_2002_642">
<rect width="18" height="14" fill="white" transform="translate(3.49988 5.57422)"/>
</clipPath>
</defs>
</svg>
